<svg version="1" xmlns="http://www.w3.org/2000/svg" width="682.667" height="682.667" viewBox="0 0 512.000000 512.000000"><path d="M242.5 44.2c-8.8 1.8-8.5 1.6-7.5 4.1.5 1.2 3.3 10.1 6.1 19.7s5.9 18.2 6.9 19.1c1.4 1.4 3 7.8 4.2 17.4.1.5.5 2.5.9 4.3.4 1.9.3 3.5-.3 3.8-1.3.8-3.2-1.4-10.5-12.5-4-5.9-5.2-8.5-4.3-9.1.8-.5-1.4-5-7.6-15.6-4.8-8.2-9.5-16.6-10.4-18.6l-1.7-3.7-5.6 3.5c-3.1 2-5.7 4-5.7 4.6 0 .6 1.5 2.7 3.3 4.7 1.7 2 5.1 5.9 7.3 8.6 2.3 2.8 6.8 8.1 10 12 3.3 3.8 6.5 7 7.3 7 1.5 0 15.7 20.2 14.8 21.1-1.4 1.5-21.2-12.4-21.2-14.9 0-.9-6.9-7.2-16.3-14.7-9-7.1-16.5-13-16.7-13-.1 0-1.8 2.4-3.8 5.4-4.1 6.2-4.6 5.5 6.8 11.6 4.4 2.4 12.2 6.8 17.4 9.7 6.5 3.8 9.6 5.1 10.1 4.3.5-.8 3.1.3 8.1 3.7 10.4 6.9 13.9 9.5 13.9 10.6 0 1.2-8.9.3-18.5-1.8-3.8-.8-7.1-1.5-7.2-1.5-.2 0-.3-.6-.3-1.4 0-.9-2.2-2.1-5.7-3.1-3.2-.8-12.4-3.5-20.4-5.9l-14.7-4.2-1.1 5.4c-1.6 8-1.5 9 1.2 8.9 2.2 0 14 1 20.7 1.9 1.9.2 9.4.6 16.5.9 7.2.2 14.4.9 16 1.4 2 .6-7.3 1-28.8 1l-31.8.1.5-3.1c.3-2.4 0-3.2-1.7-3.9-2.3-1-43.4-10-45.4-10-.9 0-1 .7-.2 2.7 1.2 3.3 1.6 19.5.5 28.5-.4 3.8-.6 6.8-.4 6.8.2 0 4.6-.9 9.8-2.1 5.2-1.1 10.4-2.2 11.5-2.5 1.1-.2 7.6-1.6 14.3-3l12.4-2.7-.4-3.4-.4-3.3 5.1-.1c2.7-.1 7.1-.1 9.8 0 2.6.1 4.7-.3 4.7-.8s-3.9-.8-8.6-.7c-4.7.1-9.1-.2-9.7-.6-.7-.4 15.2-.7 35.3-.6 20.1.1 32.8.4 28.3.5-4.6.2-8.3.8-8.3 1.2 0 .5 1.8.7 4 .6 6.5-.4 4.6.9-3.7 2.7-5.3 1-8.2 1.2-9 .6-1.1-.9-9.5-.5-18.3.7-3.8.6-19.8 1.8-22.2 1.8-3.2-.1-3.4 1-1.4 9.2.8 3.5 1.6 4.9 2.7 4.7 9.7-2.3 38.5-11.6 39.3-12.8.7-.9 5.7-2.4 12.6-3.8 16.7-3.4 17-1.7 1.8 8.4-5.1 3.4-9.5 5.7-10.3 5.4-.8-.4-7.7 2.9-15.7 7.4-7.9 4.4-16 8.9-18 9.9-2.1 1-3.8 2.2-3.8 2.8 0 1.4 6.3 10.5 7.3 10.5 1.5 0 32.2-26.2 31.9-27.2-.3-1.2.4-1.8 12.1-9.9 5.4-3.7 9.2-5.8 9.8-5.2 1.3 1.3-12.3 20.8-14.4 20.7-1.5-.2-3.4 2-13.4 14.6-.6.8-4.1 5.2-7.7 9.6-3.6 4.5-6.6 8.4-6.6 8.6 0 .8 10.9 8.2 11.3 7.7 2.4-3.1 19.7-37.1 19.2-37.9-.3-.5 1.7-4.5 4.6-8.7 7.6-11.4 9.1-13.3 10.1-12.7.9.6.2 8-1.8 17.7-.8 3.8-1.4 7-1.4 7.3 0 .2-.7.4-1.5.4-1.4 0-2.1 1.9-8.4 24-1.6 5.8-3.4 11.9-3.9 13.7l-1 3.1 4.9 1.2c4.5 1.1 4.9 1.4 4.5 3.8-.3 1.5-.8 5.2-1.1 8.2-.4 3-.9 6.2-1 7.1-.2.9-.6 4-1 7-.3 3-.8 6.5-1 7.9-.2 1.4-.7 5-1 8-.6 5.1-3.1 25.1-4 31-.4 2.8-1.2 9.1-2 16-.3 2.5-1 8.1-1.6 12.5-.5 4.4-1.2 9.6-1.4 11.5-.9 7.3-3.6 28.7-4 32.5-.3 2.2-.8 5.6-1 7.5-.3 1.9-.8 5.7-1 8.5-.3 2.7-1.4 11.7-2.5 20-1 8.2-2.2 17.7-2.5 21-.5 5.6-1.1 10.4-2 16.5-.2 1.4-.6 4.7-.9 7.5-1.4 12.6-1.8 16.2-2.2 18.5-.2 1.4-.6 5.4-.9 9-.4 3.6-.8 7.2-1 8-.2.8-.7 5.1-1.1 9.5-.3 4.4-.8 8.8-1 9.8-.7 4-1.5 13.7-1.1 13.7.3 0 1-3.6 1.6-7.9.7-4.4 1.3-8.8 1.5-9.8.2-1 .9-6.8 1.6-13 .8-6.2 1.6-11 2-10.8.3.2 0 4.6-.6 9.7-3.3 24.4-3.9 29.7-3.5 29.2.2-.2 1.4-3.3 2.7-6.7 1.9-5.5 6.1-13.7 25.1-48.7 1.7-3 5.2-9.6 7.8-14.5 5.2-9.8 6.5-11.7 6.6-9.5 0 .8 0 16.5.1 34.7 0 18.3.4 33.3.9 33.3s.9-63 .9-144.3c0-93.4.4-143.7 1-142.7s1 1.1 1 .2c0-.6 1.1-1.2 2.5-1.2 3.3 0 3.2 2.1-.4 5.9-2.7 2.9-2.9 3.7-2.9 11.1 0 4.4.4 8 .8 8 .5 0 .7-.7.4-1.5-2.1-5.4 4.6 3.7 7.8 10.7l1.7 3.8-2.7.1c-1.5.1-3.9.1-5.4.1-2.3-.1-2.8.4-2.8 2.4 0 1.3.4 2.4 1 2.4.5 0 .7-.7.4-1.5-.5-1.2.3-1.5 4-1.5h4.7l-3.8 5.5c-2.1 3-4.3 5.3-4.9 5.1-.7-.3-1.1 2.3-1.1 7.6-.1 6.5.1 7.6 1.1 6.3 1.1-1.5 1.6-1.2 4.7 2.7 4.3 5.3 8.9 12 8.9 13 0 .7-12.9 1.2-13 .5-.1-.1-.3-2-.6-4.2-.9-5.8-1.3-5.5-1.3.9v5.7l4.7-.2c6.7-.2 8.2 0 8.2 1 0 1.2-10.8 12.1-12 12.1-.5 0-.9 2.6-.9 5.7 0 3.6.4 5.2.9 4.3.7-1.2 1.3-1 3 1 1.2 1.4 4.3 4.8 6.8 7.5 9.4 10.1 9.5 9.1-.8 9.2-4.9.1-8.8-.2-8.6-.6.3-.4.1-1.3-.5-2.1-.6-1.1-.9-.8-.9 1.2 0 1.5.5 3 1.1 3.3.5.4 5.3.7 10.5.7 7.9 0 9.5.2 9 1.4-1 2.6-18.7 28.4-19.5 28.4-.4 0-.8 3.2-.8 7 .1 4.8.5 7 1.3 7 .7 0 2.4 1.2 3.8 2.8 3.7 3.9 26.8 38.2 25.9 38.3-2.5.3-28.7-.1-29.1-.5-.2-.3-.5-3.2-.6-6.5-.2-9.9-1.1-5.7-1.2 6-.1 6 .2 11.1.6 11.4.5.3.6-.5.3-1.7-.5-2.3-.5-2.3.9-.3.8 1.1 5.9 10.3 11.3 20.5 5.5 10.2 11.6 21.6 13.7 25.5 10.9 20 14.8 29 15.5 35.2.3 3.5.9 6.3 1.4 6.3.7 0 .5-3-.6-10.5-.2-1.7-.9-7.1-1.5-12-.6-5-1.3-10.4-1.5-12-.2-1.7-.7-5.7-1-8.9-.4-3.3-.9-6.7-1-7.5-.2-.9-.4-2.7-.4-4.1-.1-2-.9-2.9-3.3-3.8-1.8-.7-7.5-4.3-12.6-8.1l-9.3-6.8 9.3-9.3c10.8-10.8 9.6-11.6 12.3 9.2 1 7.3 2.1 13.7 2.5 14.1.4.4.3-1.8-.1-5s-1-7.8-1.3-10.3c-1.4-11-1.8-13.6-2.1-15.7-.2-1.2-.7-5.9-1.1-10.3-.3-4.4-1-8-1.4-8-.4 0-.5 1.2-.3 2.7l.5 2.8-3.4-3.6c-3.4-3.7-17.7-23.7-19.7-27.6-1.3-2.6-2-2.4 9.4-2.7 3.9-.1 7.5 0 8.1.2 1.1.3 1.5 2.2 3 13.4.3 2.5.9 6.8 1.4 9.5l.9 4.8-.5-5.5c-1.4-16.6-6.1-52.9-6.2-48.5-.1 1.6.5 7.6 1.2 13.2l1.3 10.3H273c-9.1 0-10.9-.3-12.3-1.8-1-1-1.7-2.7-1.7-3.8 0-2.4 18.1-29.4 19.5-29 .6.1 1.3 2 1.7 4.2.4 2.3.5 1 .2-3.1-.3-3.9-.6-7.9-.9-9-.2-1.1-.4-3.1-.5-4.5-.2-1.8-.4-2-.7-.7-.4 1.4-2.4-.1-9.9-7.4-5.4-5.4-9.4-10.1-9.4-11.2 0-1.1 3-5.2 6.7-9.1 7.3-7.8 7.9-8.3 8-6.4.3 6.8 3.9 31.8 4.6 31.8.4 0 .6-.8.3-1.8-.3-.9-1-6-1.6-11.2-1.8-17.1-2.1-19.5-2.5-21-.2-.8-.7-4.4-1-8-.4-3.6-.8-7.6-1-9-.2-1.4-.6-5-.9-8-1.2-9.8-1.7-13.5-2.1-15-.2-.8-.6-4.4-1-8-.3-3.6-.7-7.5-.9-8.6-.2-1.1-.7-4.7-1.1-7.9-.4-3.3-.9-6.8-1.1-7.7-.1-1 .1-2 .7-2.3.5-.4.9.4 1 1.7 0 1.3.2 3.2.5 4.3.2 1.1.6 4 .9 6.5.3 2.5.8 6.1 1 8 .3 1.9.7 5.3.9 7.5.3 2.2.8 5.8 1 8 .3 2.2.8 6.5 1.1 9.5.3 3 1.2 10.9 2.1 17.5 2 16.2 2.2 18.1 2.9 24.5 1 8.3 1.5 12.2 2 16 .3 1.9 1.2 9.3 2 16.5.8 7.1 1.7 14.8 2 17 .3 2.2.7 6 1 8.5.7 6.8 1.7 14.3 2 16 .2.9.6 4.5.9 8.1.4 3.6.9 7.6 1.1 9 .2 1.3.6 4.9 1 7.9.3 3 .7 7.1 1 9 1.1 8.4 1.8 14.3 3.5 28.5.5 4.9 1.2 10.8 1.5 13 .3 2.2 1 7.8 1.5 12.5.6 4.7 1.2 9.8 1.4 11.5.6 4.5 2 15.9 2.1 17 .9 7.7 1.9 12.5 2.5 12.5.4 0 .3-2.3-.1-5.1-.5-2.8-1.1-8.6-1.5-12.8-.3-4.2-.7-8.3-.9-9.1-.1-.8-.6-4.9-1-9-.3-4.1-.8-8.6-1-10-.2-1.4-.6-5-1-8-.3-3-.8-7.1-1-9-.3-1.9-.9-7.6-1.5-12.5-.6-5-1.3-10.8-1.6-13-.2-2.2-.7-5.8-1-8-.2-2.2-.6-5.6-.9-7.5-.2-1.9-.7-6.2-1-9.5-.3-3.3-.7-7.1-1-8.5-.4-2.3-.7-4.8-2.1-17-.3-2.5-.9-7.9-1.4-12-.6-4.1-1.2-9.5-1.5-12-.3-2.5-1.2-9.7-2-16-.8-6.3-1.7-13.5-2-16-.3-2.5-.8-6.3-1.1-8.5-.7-5.8-1.2-10.3-1.9-16.5-.3-3-.8-6.6-1-8-.3-1.4-.7-4.5-1-7-.3-2.5-.8-6.3-1.1-8.5-.3-2.2-.7-5.6-.9-7.5-.2-1.9-.6-5.1-.9-7-.2-1.9-.7-6-1.1-9-.4-3-1.2-9.6-1.9-14.7l-1.2-9.1 4.3-.7c2.3-.3 4.5-1 4.8-1.5.9-1.4-10.6-39.4-12.4-41.1-1.2-1.1-2.3-5.4-3.6-13.3-2.5-16.1-1.9-16.3 7.2-2.8 6.6 9.7 7.7 11.9 6.1 12.4-.6.2 3.8 8.8 9.7 19l10.7 18.7 5.4-3.6c5-3.3 6.6-5.6 4.6-6.5-.4-.2-6.5-7.2-13.5-15.5-7-8.4-13.3-15.2-13.8-15-1.8.4-15.4-19.9-14-20.8.5-.2 4.7 2 9.2 5.1 10.4 7 11.9 8.3 11.3 9.8-.2.6 1.9 2.9 4.8 5.1 9.3 7 26.3 20.9 26.6 21.7.2.4.7.8 1.2.8.8 0 8-10 8-11.2 0-.3-3-2.2-6.7-4.1-3.8-1.9-12-6.4-18.3-10-7.6-4.3-11.9-6.2-12.7-5.5-.7.6-4.6-1.5-11.7-6.3-14.3-9.6-14.3-10.5.7-7.8 13.9 2.5 14.7 2.7 14.7 4.4 0 .8 1.6 1.8 3.8 2.4 2 .6 7.3 1.9 11.7 3.1 4.4 1.2 11.7 3.3 16.3 4.6 4.6 1.4 8.5 2.4 8.7 2.2.5-.4 3.4-12.7 3.2-12.9-.8-.3-4.5-.8-12.1-1.4-5-.4-9.7-.8-10.6-1-.8-.2-5.3-.6-10-1s-8.8-.9-9.2-1.1c-.3-.2-.8.2-1 .8-.4 1-2.7.9-10.9-.5-5.7-1-11.1-2-11.9-2.2-.8-.2-1.8-.4-2.2-.4-.5-.1-.8-.5-.8-.9 0-1.6 24.2-6.4 25.1-5 .6.9 8.1.6 16.9-.7 1.4-.2 5.7-.6 9.5-1 9.1-.8 15.9-1.6 16.3-2 .6-.5-1.8-11.9-2.6-12.7-.4-.4-5.7.8-11.7 2.6-6.1 1.8-14.9 4.4-19.7 5.7-5.2 1.4-8.8 2.9-8.8 3.7 0 .7-1.1 1.7-2.6 2.2-2.3.9-3.9 1.3-11.9 2.6-1.6.3-4.6.9-6.5 1.4-4 1.1-6-.1-4.1-2.4 2.4-2.9 18.5-13 20.5-12.8 1.1 0 9.5-4.1 18.7-9.3 9.2-5.2 17.2-9.5 17.8-9.5 2 0 1.2-2.4-2.5-7.7l-3.6-5.3-9.2 7.8c-5 4.3-12.3 10.4-16.3 13.6-3.9 3.1-7 6.3-6.7 7 .5 1.3-1.1 2.6-12.9 10.6-11.6 7.7-11.6 6-.5-10.4 3.5-5.1 5.2-6.7 6.4-6.2.8.3 3.9-2.7 8.1-8.2 3.7-4.8 9.6-12.2 13-16.4 3.5-4.3 6.3-8 6.3-8.3 0-.7-11-7.9-11.4-7.4-.2.2-2.3 4.2-4.8 8.9s-6.9 12.9-9.8 18.3c-2.9 5.4-5 10.1-4.6 10.4 1.3 1.4-13 22.7-14.6 21.7-.6-.4-.8-3.3-.4-6.8.5-6.4-.6-4.7-1.9 2.6-.8 5.3-2.2 4.7-3.4-1.5-3.6-17.3-3.9-19.9-2.4-20.4 1-.4 1.2-1.7.8-5.2-.3-2.5-1-8-1.5-12.1-1.4-10.9-2.3-20.2-2.4-22.7 0-2.8-1.1-3.2-6.1-2.1zm17 98.1c.9 6 1.4 11.6 1.3 12.5-.2 1-1-2.7-1.7-8.1-1.1-7.5-1.7-9.7-2.7-9.3-1.6.6-1.7.1-.8-4.3 1.1-5.1 2.2-2.4 3.9 9.2zm-4.8-.1c-.3.7-.5.2-.5-1.2s.2-1.9.5-1.3c.2.7.2 1.9 0 2.5zm-1.2 8.8c-.4 2.8-.9 4.9-1.2 4.7-.2-.3-.1-2.8.3-5.6s.9-5 1.1-4.7c.3.3.2 2.8-.2 5.6zm7.4 19.5c.7 5.5 1.4 11.5 1.6 13.2.4 2.9.2 3.3-1.9 3.3h-2.4l.1-15.1c.1-16.5.8-16.9 2.6-1.4zm-6.4 3.5c0 13 0 13-2.3 13-1.7 0-2.2-.4-1.8-1.8.2-.9.8-5.3 1.2-9.7.5-4.4.9-8.3 1-8.8.1-.4.2-1.8.3-3.2 0-1.4.4-2.5.9-2.5.4 0 .7 5.8.7 13zm-.5 20.3c0 3.9 0 4-2 2.2-1.1-1-2-3-2-4.6 0-2.2.4-2.6 2-2.2 1.6.4 2 1.4 2 4.6zm-1 7.6c1.3 3.2 0 7.1-4.1 12.1l-2 2.5.6-7.5c.8-10.2 1.4-12.3 3-11 .7.6 1.8 2.4 2.5 3.9zm12.5 9.6l.6 7-3.6-5.5c-4.1-6.4-4.5-10.5-1.3-14l2.3-2.4.6 3.9c.4 2.2 1 7.1 1.4 11zm-19.4-3.2c-1.3 9.1-1.3 9.4-3.7 29.2-.9 7.7-1.8 14.3-2.1 14.7-.2.5.1.8.6.8.6 0 1.1-1 1.2-2.3 0-1.2.2-2.9.3-3.7.2-.8.6-4 1-6.9.6-5.3 1.2-6.9 2-6 3.7 4.4 7.6 10.5 7.6 12.2 0 2.4-9.7 15.8-11.9 16.5-.8.3-1.1 0-.7-.7.4-.6.3-1.1-.2-1.1-.6 0-1.3 3.7-1.8 8.2-.4 4.6-.9 8.6-1 9-.1.5-.2 2.1-.3 3.8 0 1.6-.5 3-.9 3-.5 0-.5-2.6-.1-5.8.4-3.1 1-8.2 1.4-11.2.3-3 .8-6.2 1-7 .2-.8.6-4.2 1-7.5.3-3.3.8-7.8 1.1-10 .2-2.2.6-5.4.8-7 .2-1.7.7-5.3 1.1-8 .3-2.8.8-6.4 1-8 1.8-15.3 3-22.6 3.3-21.6.2.7-.1 4.9-.7 9.4zm8.1 11.8c0 3.9-.3 7.4-.7 7.7-1.1 1.1-7.7.8-8.2-.4-.7-1.9 7.3-16.1 8.5-14.9.3.2.4 3.6.4 7.6zm-.1 11.4c.3 5.1.2 8.6-.3 9-.3.3-2.4-1.9-4.7-5l-4.2-5.5h4.6c3.3 0 4.5.4 4.6 1.5zm15 5.2c0 1.6.2 3.5.3 4.3.2.8.6 4 .9 7 .4 3 .9 8 1.3 11 .6 5.2.6 5.4-1.1 4-3.5-2.9-11.5-14.3-11.5-16.4 0-3.1 7-12.6 9.2-12.6.4 0 .8 1.2.9 2.7zm-14.8 22c-.1 3.8-.2 8-.2 9.5-.1 2.8-.1 2.8-7.6 2.8H239l5.1-7.3c5.4-7.6 8.9-11.7 9.8-11.7.3 0 .5 3 .4 6.7zm-.8 14.2c1 .1 1.1 11.8.2 12.8-.7.7-11.7-10.7-11.7-12.1 0-1 4-1.2 11.5-.7zm-5.1 11l5.9 6.1-8.9 9.2c-4.9 5.2-9.2 9-9.5 8.5-.3-.4-.2-3.3.2-6.5.4-3.1 1-8.4 1.4-11.7.4-3.3.8-6.9 1-8 .1-1.1.3-2.8.4-3.8.2-2.5 2.3-1.1 9.5 6.2zm-13 11.3c-.7 5.1-1.5 11.1-1.8 13.3-.3 2.2-.5 5.2-.6 6.7 0 1.6-.4 2.8-1 2.8-.5 0-.7-.6-.5-1.3.2-.6.6-3.2.9-5.7 1.3-13.2 3-25 3.6-25 .3 0 .1 4.2-.6 9.2zm18.8 8.8c-.1 4.4-.3 8.4-.6 8.9s-4.4.8-9.1.8c-9.8 0-9.9 1 1.4-10.9 4.1-4.3 7.6-7.6 7.9-7.3.3.2.4 4.1.4 8.5zm-.1 18.2c.1 9.5-.1 22.1-.4 22.5-.2.1-3.7-4.4-7.8-10-11.7-15.8-12.3-16.8-11-17.6.6-.4 5.1-.8 10.1-1l9-.2.1 6.3zm-21.4-2.5c-.5.8-.9 3.9-2.3 15.8-.3 3.3-.8 6.7-.9 7.5-.2.8-.9 6.6-1.6 12.7-.7 6.2-1.5 11.3-1.9 11.3-.3 0 .1-6 1.1-13.3.9-7.2 1.9-15.7 2.3-18.7 1.6-14.2 1.9-16 2.8-16 .5 0 .7.3.5.7zm12.1 17.3c9.4 13.6 9.9 14.8 7.2 17.8-1.9 2-3.1 2.2-12.5 2.2-5.8 0-10.5-.2-10.5-.4 0-2 4.2-30.9 4.6-32.1.9-2.2 1.2-1.8 11.2 12.5zm2.9 23.3c.7.8-19.4 29.3-22.3 31.6-1.6 1.2-2.3 3.2-2.8 7.6-.8 7.2-3.5 30.1-4 33.2-.2 1.3 0 2.3.3 2.3.4 0 1.2-5.1 1.9-11.3 1.4-12.7 2.2-18 2.8-18.7.3-.2 4.4 3.5 9.2 8.4l8.7 8.7-5.4 4.9c-2.9 2.7-8 6.7-11.2 9-5.7 4-5.9 4-6 1.8-.1-2.3-.1-2.3-.9.2-.4 1.4-.8 1.8-.9 1-.1-1.2 4-37 6.5-56 .9-7.4 1.7-6 .9 1.7-.4 4-.5 7.3-.2 7.3.2 0 1.2-6.9 2.1-15.3 1-8.3 1.9-15.7 2.1-16.2.3-1 18.1-1.2 19.2-.2zm6.5 19.2c0 10.5-.1 19.7-.1 20.5-.1 1.3-2.5 1.5-15.1 1.5-8.3 0-15-.3-15-.7 0-2 24-37.2 26.9-39.5.9-.7 2-1.1 2.5-1 .5.2.8 8.8.8 19.2zm-28.6-2.7c-1.1 1-1.3-.3-.7-4.8l.6-4.5.3 4.4c.2 2.3.1 4.6-.2 4.9zm26.4 26.9c0 .5-1.8 4.6-4.1 9.2l-4 8.4-2.7-2.4c-4.4-3.9-12.3-12.3-13.3-14.2-.9-1.6-.1-1.7 11.6-1.7 6.9 0 12.5.3 12.5.7zm32.7.7c.6.5-14.3 15.6-15.5 15.6-.8 0-8.2-14.4-8.2-16.1 0-1 22.7-.6 23.7.5zm-46.8 26.8c-.7 1.3-4 7.5-7.4 13.8-3.4 6.3-8.1 15.1-10.5 19.5-5.2 9.8-5.2 9.9-4.6 5 2.7-22.4 3.2-24.6 6.4-27.7 2.2-2.2 16-12.5 17-12.7.1-.1-.3.9-.9 2.1zm47.9 6.5c4.5 3.5 8.2 6.9 8.2 7.6 0 .7.5 4.6 1.1 8.7.5 4.1 1.2 10 1.5 13l.5 5.5-3-4.7c-1.7-2.7-3.1-5.1-3.1-5.4 0-.3-.8-1.8-1.9-3.2-2.6-3.7-14.1-26.6-14.1-28.1 0-1.6.8-1.1 10.8 6.6zm-68.2 4.9c-.3.9-.6 2.7-.6 4 0 1.3-.3 2.4-.8 2.4-.4 0-.6-1.8-.4-4 .2-2.2.9-4 1.4-4 .6 0 .7.7.4 1.6z"/><path d="M240.2 257c0 1.9.2 2.7.5 1.7.2-.9.2-2.5 0-3.5-.3-.9-.5-.1-.5 1.8zM264.3 44.3c-.4.7-.8 2.1-.9 3.2-.3 4.6-1.6 17.7-2 20.7-.3 1.8-.6 8.9-.8 15.8-.1 6.9-.5 13.1-1 13.8-.4.6-.3 1.2.2 1.2s1.5-2.7 2.1-6c.8-3.9 1.7-6 2.6-6 1.4 0 2.8-3.9 7.9-23.1 1.4-5.3 3.2-11.4 4-13.7.9-2.3 1.2-4.2.8-4.2-.4-.1-3.3-.7-6.4-1.4-4.4-1.1-6-1.1-6.5-.3zM195 122.1c0 .5 2.5.9 5.5.9s5.5-.3 5.5-.8c0-.4-2.5-.8-5.5-.9-3 0-5.5.3-5.5.8zM207 121.8c0 .4 2.5.8 5.5.8s5.5-.3 5.5-.8c0-.4-2.5-.8-5.5-.8s-5.5.3-5.5.8zM219 121.8c0 .4 2.5.8 5.5.8s5.5-.3 5.5-.8c0-.4-2.5-.8-5.5-.8s-5.5.4-5.5.8zM257 195c0 1.1.2 2 .4 2s.6-.9.9-2c.3-1.1.1-2-.4-2s-.9.9-.9 2zM257 220.5c0 .8.2 1.5.4 1.5s.6-.7 1-1.5c.3-.8.1-1.5-.4-1.5-.6 0-1 .7-1 1.5zM257 225.2c0 1.9.2 2 1 .8 1.3-1.9 1.3-3 0-3-.5 0-1 1-1 2.2zM257 236.7c0 2.1.3 2.4.9 1.4.5-.8.7-2 .4-2.8-.8-2.1-1.3-1.5-1.3 1.4zM257 259c0 1.1.2 2 .4 2s.6-.9.9-2c.3-1.1.1-2-.4-2s-.9.9-.9 2zM257 276.7c0 2.1.3 2.4.9 1.4.5-.8.7-2 .4-2.8-.8-2.1-1.3-1.5-1.3 1.4zM257 284.1c0 .5.5.7 1 .4.6-.3 1-.8 1-1.1 0-.2-.4-.4-1-.4-.5 0-1 .5-1 1.1zM257.2 300.9c0 1.7.1 3.1.3 3.1.7 0 1.2-3.9.5-4.9-.4-.7-.7.1-.8 1.8zM257 307c0 1.1.2 2 .4 2s.6-.9.9-2c.3-1.1.1-2-.4-2s-.9.9-.9 2zM257 318.3c0 1.5.4 2.7.8 2.7 1 0 .9-3.6-.1-4.6-.4-.4-.7.5-.7 1.9zM257 324.7c0 2.1.3 2.4.9 1.4.5-.8.7-2 .4-2.8-.8-2.1-1.3-1.5-1.3 1.4zM257.3 330.2c.1 1.6.5 2.8.9 2.8 1 0 .9-.9-.2-3.5-.8-1.7-.8-1.6-.7.7zM257 336.5c0 1.4.4 2.5.9 2.5.4 0 .6-1.1.3-2.5-.2-1.4-.6-2.5-.8-2.5-.2 0-.4 1.1-.4 2.5zM257 342.7c0 2.1.3 2.4.9 1.4.5-.8.7-2 .4-2.8-.8-2.1-1.3-1.5-1.3 1.4zM257 362c0 .5.5 1 1 1 .6 0 1-.5 1-1 0-.6-.4-1-1-1-.5 0-1 .4-1 1zM257 368c0 .5.5 1 1 1 .6 0 1-.5 1-1 0-.6-.4-1-1-1-.5 0-1 .4-1 1zM257 372.5c0 1.4.4 2.5.9 2.5.4 0 .6-1.1.3-2.5-.2-1.4-.6-2.5-.8-2.5-.2 0-.4 1.1-.4 2.5zM257.7 376.7c-1 .9-.9 4.3.1 4.3.4 0 .8-1.1.8-2.5 0-2.8 0-2.8-.9-1.8zM257.9 382.2c-.6 1.2-.5 4.8.1 4.8.4 0 .7-1.1.6-2.5-.1-2.2-.3-3-.7-2.3zM257.3 415c.1 1.1.5 2 .9 2 .3 0 .6-.9.5-2-.1-1.1-.5-2-.9-2-.3 0-.6.9-.5 2zM257.3 421c.1 1.1.5 2 .9 2 .3 0 .6-.9.5-2-.1-1.1-.5-2-.9-2-.3 0-.6.9-.5 2zM257 427c0 1.1.4 2 .8 2s.8-.9.8-2-.4-2-.8-2-.8.9-.8 2zM257 433c0 1.1.4 2 .8 2s.8-.9.8-2-.4-2-.8-2-.8.9-.8 2zM257 439c0 1.1.2 2 .4 2s.6-.9.9-2c.3-1.1.1-2-.4-2s-.9.9-.9 2zM257.3 445c.5 2.9 1.3 3.3 1.3.5 0-1.4-.4-2.5-.8-2.5s-.7.9-.5 2zM257 452.5c0 .8.4 1.5 1 1.5.5 0 .7-.7.4-1.5-.4-.8-.8-1.5-1-1.5-.2 0-.4.7-.4 1.5zM257.3 457.1c-.2 2.3.3 2.5 1 .4.4-.8.3-1.6-.1-1.9-.4-.3-.9.4-.9 1.5zM257 470c0 .5.5 1 1.1 1 .5 0 .7-.5.4-1-.3-.6-.8-1-1.1-1-.2 0-.4.4-.4 1zM257 473.9c0 .6.4 1.3 1 1.6.6.3.7-.1.4-.9-.7-1.8-1.4-2.1-1.4-.7zM303.1 493.6c0 1.1.3 1.4.6.6.3-.7.2-1.6-.1-1.9-.3-.4-.6.2-.5 1.3z"/></svg>