<?xml version="1.0" encoding="UTF-8" standalone="no"?>
<!-- Created with Inkscape (http://www.inkscape.org/) -->

<svg
   xmlns:dc="http://purl.org/dc/elements/1.1/"
   xmlns:cc="http://creativecommons.org/ns#"
   xmlns:rdf="http://www.w3.org/1999/02/22-rdf-syntax-ns#"
   xmlns:svg="http://www.w3.org/2000/svg"
   xmlns="http://www.w3.org/2000/svg"
   xmlns:sodipodi="http://sodipodi.sourceforge.net/DTD/sodipodi-0.dtd"
   xmlns:inkscape="http://www.inkscape.org/namespaces/inkscape"
   width="512"
   height="512"
   viewBox="0 0 135.46666 135.46667"
   version="1.1"
   id="svg8"
   inkscape:version="0.92.4 (5da689c313, 2019-01-14)"
   sodipodi:docname="Mill.svg"
   inkscape:export-filename="C:\Users\pr0gr4mm3r\source\repos\RangersAppTest\dist\images\icon-512.png"
   inkscape:export-xdpi="96.000008"
   inkscape:export-ydpi="96.000008">
  <defs
     id="defs2" />
  <sodipodi:namedview
     id="base"
     pagecolor="#ffffff"
     bordercolor="#666666"
     borderopacity="1.0"
     inkscape:pageopacity="0.0"
     inkscape:pageshadow="2"
     inkscape:zoom="2.2422521"
     inkscape:cx="267.45155"
     inkscape:cy="413.7517"
     inkscape:document-units="mm"
     inkscape:current-layer="layer1"
     showgrid="false"
     showguides="false"
     inkscape:window-width="1920"
     inkscape:window-height="1058"
     inkscape:window-x="-8"
     inkscape:window-y="-8"
     inkscape:window-maximized="1"
     units="px" />
  <metadata
     id="metadata5">
    <rdf:RDF>
      <cc:Work
         rdf:about="">
        <dc:format>image/svg+xml</dc:format>
        <dc:type
           rdf:resource="http://purl.org/dc/dcmitype/StillImage" />
        <dc:title></dc:title>
      </cc:Work>
    </rdf:RDF>
  </metadata>
  <g
     inkscape:groupmode="layer"
     id="layer3"
     inkscape:label="Tail"
     transform="translate(0,-161.53332)">
    <path
       style="fill:#000000;fill-opacity:1;stroke:none;stroke-width:0.11704198px;stroke-linecap:butt;stroke-linejoin:miter;stroke-opacity:1"
       d="m 33.417659,188.4208 c 0.941201,2.47296 0.719743,7.34506 0.03691,10.18711 l 12.844624,-2.76823 c 0,0 0.138882,-1.16715 -0.267135,-1.83152 l 20.710709,-0.079 0.0043,-0.30609 -20.429601,0.0574 -0.01849,-0.35064 20.337326,-0.0185 0.01187,-0.28408 c 0,0 -20.090888,-0.0297 -20.773722,-0.0112 0.406008,-0.66437 0.258373,-1.79012 0.258373,-1.79012 z"
       id="path6762"
       inkscape:connector-curvature="0"
       sodipodi:nodetypes="ccccccccccccc"
       inkscape:export-filename="C:\Users\pr0gr4mm3r\source\repos\RangersAppTest\dist\images\icon-512.png"
       inkscape:export-xdpi="96"
       inkscape:export-ydpi="96" />
  </g>
  <g
     inkscape:label="Tower"
     inkscape:groupmode="layer"
     id="layer1"
     style="display:inline"
     transform="translate(0,-161.53332)">
    <path
       style="fill:#000000;stroke-width:0.05226735"
       d="m 55.235735,292.6099 c 0.205472,-3.45098 2.508804,-23.04321 5.803715,-49.36651 3.772704,-30.14043 6.588671,-51.06521 6.872144,-51.06521 0.05529,0 0.271701,1.16279 0.520528,2.79631 2.276486,14.94565 10.986767,85.74307 11.891996,96.65856 0.180191,2.17272 0.01058,1.65017 -0.386833,-1.19224 -0.675559,-4.83105 -1.647515,-12.7852 -4.786923,-39.17438 -3.444619,-28.9548 -4.970666,-41.35984 -6.092279,-49.52332 -0.582734,-4.24128 -1.001898,-6.69022 -1.145105,-6.69022 -0.401992,0 -2.239296,13.9246 -6.717225,50.90841 -2.422668,20.0091 -2.82969,23.36293 -3.349205,27.59716 -1.017058,8.28939 -1.744795,14.01255 -2.113467,16.62101 -0.364028,2.57552 -0.564237,3.55393 -0.497346,2.43043 z m 24.155242,-0.32666 c -0.06389,-1.38816 -0.221199,-2.25419 -0.59086,-3.25365 -0.300714,-0.81303 -1.038822,-2.21959 -6.891276,-13.13225 l -3.552974,-6.62497 -0.01324,9.38208 c -0.01316,9.33747 -0.01367,9.38206 -0.117557,9.38206 -0.104193,0 -0.104382,-0.0609 -0.117461,-38.1421 l -0.01307,-38.1421 h -0.182934 -0.182942 l -0.01307,38.1421 -0.01307,38.1421 h -0.208895 -0.208885 l -0.01324,-9.40322 -0.01324,-9.40322 -4.913122,9.0677 -4.91313,9.06769 -0.460792,1.211 c -0.410076,1.07774 -0.497303,1.37206 -0.792643,2.67449 -0.182521,0.80492 -0.333846,1.44718 -0.336288,1.42724 -0.0026,-0.0199 0.441918,-3.75968 0.987461,-8.31052 0.966634,-8.06355 1.436669,-11.90817 4.414391,-36.10661 0.790613,-6.42497 1.838395,-15.02164 2.328398,-19.10372 1.088498,-9.06801 1.380656,-11.3947 3.035429,-24.17365 0.874926,-6.75652 0.894248,-6.87803 1.147057,-7.21319 0.09485,-0.12574 0.09798,-0.12619 0.205369,-0.029 0.253987,0.22986 0.45172,1.32807 0.941637,5.22989 0.372085,2.96334 0.946727,7.97123 1.229512,10.71481 0.04446,0.4312 0.362996,2.98316 0.707891,5.67101 0.344904,2.68784 0.921705,7.32135 1.281794,10.29667 0.360098,2.97532 1.771754,14.64139 3.137018,25.9246 2.236139,18.48057 4.466999,36.76488 4.548492,37.27969 l 0.03104,0.19601 H 79.632143 79.426516 Z M 59.657255,281.81669 c 2.902404,-5.41577 3.64046,-6.82652 3.595127,-6.87186 -0.03216,-0.0321 -2.79766,1.96859 -3.947959,2.85614 -0.42005,0.32412 -0.88724,0.70755 -1.038211,0.85209 -0.250178,0.23952 -0.282115,0.29702 -0.360666,0.64916 -0.367365,1.64698 -1.187309,7.83115 -1.01392,7.64722 0.019,-0.0202 1.263547,-2.32991 2.765629,-5.13275 z m 18.583922,1.10247 -0.533875,-3.99304 -0.232997,-0.20792 c -0.486872,-0.43448 -4.907051,-3.66528 -4.95247,-3.61987 -0.03397,0.034 0.572406,1.50373 0.987185,2.39264 0.967666,2.07383 2.610237,5.07787 4.50315,8.23569 0.401631,0.67 0.737575,1.21084 0.746552,1.20187 0.0089,-0.009 -0.223917,-1.8132 -0.517545,-4.00937 z m -19.502505,-5.48215 c 2.295911,-1.56649 4.634164,-3.44616 5.108808,-4.10685 l 0.107685,-0.1499 -2.399176,-2.36657 c -1.319543,-1.30162 -2.416958,-2.35006 -2.438705,-2.32987 -0.06845,0.0636 -0.336709,1.78869 -0.581865,3.74182 -0.213882,1.70406 -0.659153,5.5714 -0.659153,5.72504 0,0.0717 0.03534,0.0507 0.862406,-0.51367 z m 18.976877,0.15909 c -0.01728,-0.10779 -0.289604,-2.10114 -0.605082,-4.42965 -0.315462,-2.32851 -0.586862,-4.3111 -0.603096,-4.40575 l -0.0295,-0.1721 -0.271615,0.21568 c -1.072358,0.85154 -3.65071,3.43172 -4.549231,4.55245 l -0.194457,0.24254 1.217895,0.91101 c 1.557562,1.16508 3.01548,2.19689 3.64046,2.57646 0.483657,0.29374 1.288716,0.70537 1.379564,0.70537 0.02563,0 0.03242,-0.0882 0.01505,-0.19601 z m -12.205272,-6.57261 c 0.49474,-1.03489 1.001451,-2.09919 1.126032,-2.3651 l 0.226514,-0.48347 h -3.451275 -3.451283 l 0.117006,0.20817 c 0.376814,0.67046 1.585681,2.03811 2.777572,3.14243 0.87693,0.81249 1.671112,1.46574 1.720711,1.41535 0.01935,-0.0197 0.439991,-0.88249 0.934723,-1.91738 z m 6.35747,1.19237 c 0.224493,-0.17785 0.772736,-0.68506 1.218316,-1.12711 0.911635,-0.90443 2.592033,-2.70434 2.525916,-2.70558 -0.02373,-4.4e-4 -1.513234,-0.0472 -3.309925,-0.10393 -1.79669,-0.0568 -3.331448,-0.10339 -3.410567,-0.10372 -0.141608,-4.4e-4 -0.125914,0.0352 1.008287,2.30321 l 1.152139,2.30381 0.203829,-0.12165 c 0.112114,-0.0669 0.387512,-0.26717 0.612005,-0.44503 z m -6.378022,-4.45908 h 1.794661 v -5.54134 -5.54133 l -0.14374,0.0329 c -0.615478,0.14087 -1.148261,0.61292 -1.76895,1.56732 -0.222893,0.34273 -0.79726,1.17587 -1.276368,1.85142 -2.372442,3.34522 -4.170181,6.05276 -4.719783,7.10837 l -0.258519,0.49653 0.1767,0.0365 c 0.09718,0.0201 1.127236,0.026 2.289023,0.0131 1.16177,-0.0129 2.91992,-0.0235 3.906976,-0.0235 z m 11.045979,-0.032 c 0,-0.0176 -1.33282,-1.9992 -2.961814,-4.40352 -1.629002,-2.40432 -3.127945,-4.61845 -3.330983,-4.92029 -0.479762,-0.71322 -1.097519,-1.33615 -1.547304,-1.56027 l -0.339736,-0.16929 -0.01556,2.96855 c -0.01445,2.75351 0.06329,7.50549 0.129087,7.89329 l 0.02855,0.16843 0.712965,0.0161 c 1.436377,0.0325 7.324766,0.0381 7.324766,0.007 z m -16.468012,-2.84266 c 0.562345,-0.69398 1.207421,-1.55697 2.208649,-2.95478 1.459886,-2.03815 3.435787,-4.93859 3.527899,-5.17864 0.02408,-0.0627 -0.366659,-0.0715 -2.65422,-0.0599 l -2.682426,0.0135 -0.534037,4.28592 c -0.293732,2.35726 -0.548656,4.37964 -0.566499,4.49418 l -0.0325,0.20825 0.165366,-0.15599 c 0.09095,-0.0858 0.346435,-0.37942 0.567729,-0.65252 z m 15.74128,-2.74804 c -0.255577,-1.92385 -0.518009,-3.93892 -0.583189,-4.47793 l -0.118502,-0.98001 h -2.657729 -2.657738 l 0.08143,0.19494 c 0.285795,0.68402 1.209881,2.08043 3.164921,4.78261 0.452013,0.62475 1.069718,1.50676 1.372702,1.96003 0.690522,1.03306 1.060603,1.47803 1.493896,1.7962 0.187405,0.13761 0.347071,0.24387 0.35481,0.23614 0.0077,-0.008 -0.195042,-1.58813 -0.45062,-3.51198 z m -10.145918,-6.13721 c 0.872656,-0.1655 1.463946,-0.73558 1.463946,-1.41142 0,-0.44514 -0.223126,-0.84971 -1.354799,-2.45656 -0.394795,-0.56057 -1.044334,-1.50139 -1.443411,-2.0907 -0.859165,-1.26871 -1.661257,-2.34212 -2.12855,-2.84858 l -0.337586,-0.36586 -0.0325,0.1568 c -0.159494,0.76957 -0.564392,3.5849 -0.841915,5.85394 -0.186348,1.5236 -0.352686,2.87013 -0.369643,2.99231 l -0.03078,0.22213 h 2.400362 c 1.375574,0 2.517584,-0.0223 2.674927,-0.0521 z m 9.356896,0.0361 c 0,-0.0489 -0.994735,-8.98567 -1.021022,-9.17291 l -0.03156,-0.22497 -0.214621,0.0159 -0.214622,0.0159 -1.978867,2.82243 c -2.660421,3.79452 -2.892154,4.14423 -3.019642,4.557 -0.127127,0.41157 -0.130266,0.54068 -0.02201,0.90522 0.06518,0.21942 0.153465,0.35043 0.40507,0.60097 0.501199,0.49907 0.416534,0.48716 3.496987,0.49214 1.430169,0.003 2.600297,-0.003 2.600297,-0.0117 z m -3.924913,-6.78939 c 1.444082,-2.11872 2.629825,-3.87098 2.634985,-3.89393 0.0052,-0.023 -0.155263,-0.0742 -0.356496,-0.11388 -0.274022,-0.0541 -0.930036,-0.0734 -2.613367,-0.0771 -1.236116,-0.003 -2.288653,0.0114 -2.338966,0.0313 -0.08599,0.0341 -0.09147,0.27237 -0.09147,3.97529 0,2.16651 0.01608,3.95519 0.03569,3.97483 0.0196,0.0196 0.05108,0.0177 0.06982,-0.004 0.01875,-0.022 1.215651,-1.77357 2.659742,-3.89227 z m -3.840816,-4.06162 c -0.01694,-0.0169 -0.952024,-0.0295 -2.077953,-0.0278 -1.977372,0.003 -2.946568,0.0598 -3.183744,0.18675 -0.333287,0.17838 0.172615,0.96928 3.167715,4.95216 l 2.098006,2.78995 0.01341,-3.93514 c 0.0077,-2.16433 -4.39e-4,-3.94901 -0.01746,-3.96596 z m 0.03018,-3.24113 v -2.60923 l -1.292989,1.34175 c -0.711142,0.73796 -1.843048,1.91211 -2.515331,2.60923 l -1.222339,1.26749 h 2.515331 2.51533 z m 5.612011,2.33482 c -0.145477,-0.15092 -1.141752,-1.23873 -2.213929,-2.41736 -1.072186,-1.17862 -2.04017,-2.2367 -2.151079,-2.35126 l -0.201663,-0.2083 v 2.62567 2.62566 h 2.415583 2.415583 z m 0.661224,-0.57493 c 0.0034,-0.21007 -1.174074,-9.63869 -1.2089,-9.67775 -0.07266,-0.0815 -0.701975,0.52151 -1.820854,1.7448 -0.590919,0.64605 -1.278285,1.39278 -1.5275,1.6594 -0.341189,0.36502 -0.474894,0.55034 -0.541287,0.75025 -0.162984,0.49069 -0.152502,0.50478 1.955806,2.6288 1.731596,1.74449 3.004834,2.95983 3.100841,2.95983 0.02244,0 0.04127,-0.0294 0.04188,-0.0653 z m -10.533017,-0.97337 c 0.373719,-0.39174 1.488951,-1.55497 2.478304,-2.58495 l 1.798805,-1.87272 -1.981757,-1.98305 c -1.910231,-1.9115 -1.983158,-1.97784 -2.020607,-1.83829 -0.114211,0.42557 -0.48787,3.45655 -0.716963,5.8158 -0.143766,1.48047 -0.275811,2.80349 -0.293439,2.94003 -0.01763,0.13655 -0.01221,0.24539 0.01204,0.24186 0.02425,-0.003 0.349874,-0.32694 0.723585,-0.71868 z m 4.259782,-7.18544 v -1.84751 l -1.73016,-0.0375 c -0.951586,-0.0206 -1.741158,-0.0265 -1.754598,-0.0131 -0.04042,0.0405 0.165099,0.4039 0.448194,0.79246 0.367081,0.50382 0.960365,1.14546 1.703744,1.84262 0.508654,0.47704 1.258637,1.10783 1.31975,1.11002 0.0069,0 0.01307,-0.83092 0.01307,-1.84706 z m 1.996324,0.91941 c 0.900448,-0.77606 1.975205,-1.97132 2.357884,-2.62226 l 0.09443,-0.16061 H 70.03139 68.329743 v 1.78148 1.78149 l 0.222137,-0.1717 c 0.122183,-0.0944 0.450155,-0.36822 0.728847,-0.6084 z m -1.986392,-5.82745 c 0.01118,-1.44453 0.01299,-2.63685 0.0043,-2.64957 -0.0091,-0.0127 -0.159175,0.11662 -0.333528,0.28747 -0.385001,0.37725 -1.156309,1.32716 -1.822487,2.2445 -0.57392,0.7903 -1.830089,2.64667 -1.830089,2.70451 0,0.0218 0.891419,0.0396 1.980932,0.0396 h 1.980931 l 0.02038,-2.62644 z m 4.748358,2.50093 c -0.232611,-0.61181 -0.96979,-1.75243 -1.914075,-2.96163 -0.720498,-0.92262 -1.527027,-1.87825 -1.585199,-1.87825 -0.06982,0 -0.161764,0.55383 -0.224742,1.35412 -0.07997,1.01594 0.01599,2.74139 0.194258,3.49367 l 0.02786,0.1176 h 1.774806 1.774798 z m -0.474482,-5.67989 c -0.287936,-2.25459 -0.537004,-4.15806 -0.55348,-4.22993 -0.02838,-0.1239 -0.04884,-0.11035 -0.393238,0.26133 -0.999611,1.07867 -1.731519,2.03368 -2.062364,2.69103 -0.195437,0.38828 -0.230512,0.50097 -0.202471,0.65045 0.0503,0.2684 0.252216,0.63621 0.537529,0.97942 0.139355,0.16762 0.515885,0.67356 0.836747,1.1243 0.982189,1.37976 1.595122,2.0961 2.151397,2.51437 0.09974,0.075 0.187655,0.13004 0.195368,0.12233 0.0077,-0.008 -0.221552,-1.85871 -0.509488,-4.1133 z m -7.51942,3.54126 c 0.463122,-0.3841 1.024238,-1.0671 2.008061,-2.44425 0.833917,-1.16731 1.018477,-1.50708 1.018477,-1.87504 0,-0.27367 -0.298178,-0.84386 -0.800236,-1.53024 -0.602477,-0.82369 -1.57685,-1.96628 -1.630782,-1.91235 -0.01556,0.0156 -0.262569,1.76626 -0.548828,3.89037 -0.286259,2.12411 -0.535018,3.95235 -0.552792,4.06275 -0.02958,0.1839 -0.02416,0.19628 0.06458,0.14769 0.05331,-0.0291 0.251975,-0.18169 0.441564,-0.33893 z m 3.243687,-7.00023 c -0.01,-0.86961 -0.02408,-1.58742 -0.03147,-1.59513 -0.0077,-0.008 -0.567006,-0.008 -1.243649,0 l -1.230252,0.014 1.235574,1.5801 c 0.679558,0.86905 1.24733,1.58054 1.261707,1.5811 0.01436,4.4e-4 0.01797,-0.7105 0.0077,-1.5801 z m 2.262151,-0.0139 c 0.591187,-0.84739 1.074878,-1.55257 1.074878,-1.56705 0,-0.0144 -0.517442,-0.0263 -1.149878,-0.0263 h -1.149884 l 4.48e-4,1.31976 c 4.38e-4,1.34015 0.0325,1.88667 0.107796,1.84012 0.02296,-0.0142 0.525447,-0.71912 1.116625,-1.56651 z m -3.203366,-2.0115 h 0.93314 v -2.29992 -2.29991 l -0.174885,0.19615 c -0.651603,0.73086 -1.736842,2.50713 -2.123193,3.47515 -0.168754,0.42282 -0.274495,0.86768 -0.225197,0.94744 0.01591,0.0257 0.170207,0.032 0.342934,0.0139 0.172727,-0.0181 0.733972,-0.0328 1.247201,-0.0328 z m 4.511748,-0.0592 c 0.07988,-0.0799 -0.372266,-1.10686 -0.859749,-1.95303 -0.34787,-0.60381 -1.614048,-2.58722 -1.651643,-2.58722 -0.01204,0 -0.02184,1.03781 -0.02184,2.30626 v 2.30627 l 1.252574,-0.0221 c 0.688922,-0.0122 1.265233,-0.0347 1.280694,-0.0502 z m -0.393385,-3.05296 c -0.132922,-0.735 -0.374948,-2.54161 -0.545852,-4.07453 -0.07369,-0.66118 -0.141591,-1.23743 -0.150834,-1.28054 -0.02391,-0.11175 -0.799307,0.69849 -1.017858,1.06364 -0.09665,0.16149 -0.207347,0.3822 -0.245973,0.49046 -0.102689,0.2878 -0.09019,0.78944 0.02932,1.17633 0.141522,0.4582 0.583731,1.31514 1.004977,1.94749 0.34051,0.51116 0.973814,1.30573 1.011039,1.26851 0.01032,-0.0103 -0.02786,-0.27642 -0.08479,-0.59136 z m -4.215781,-1.2681 c 0.653357,-0.8751 0.979352,-1.48637 0.977589,-1.83298 -0.0017,-0.22733 -0.286182,-0.97463 -0.525697,-1.37832 -0.246411,-0.41529 -0.722604,-0.95476 -0.785815,-0.89022 -0.08941,0.0913 -0.313956,1.72322 -0.541373,3.93459 -0.0724,0.70431 -0.144651,1.37332 -0.160499,1.48669 -0.02743,0.19647 -0.01324,0.18298 0.302399,-0.28747 0.182169,-0.27149 0.512197,-0.73601 0.733396,-1.03229 z m 1.018451,-5.84025 c -0.0077,-0.007 -0.290395,-0.03 -0.62817,-0.0508 l -0.614137,-0.0378 v 0.45228 c 0,0.37537 0.0215,0.49419 0.126284,0.69881 0.147463,0.28789 0.412285,0.64578 0.814527,1.10077 l 0.287471,0.32516 0.01402,-1.23772 c 0.0077,-0.68075 0.0077,-1.24355 0,-1.25068 z m 1.434915,1.89701 c 0.721616,-0.83661 0.876956,-1.11517 0.876956,-1.57261 v -0.34822 h -0.627206 -0.627216 v 1.12375 c 0,0.64512 0.02038,1.12374 0.04781,1.12374 0.02631,0 0.174644,-0.147 0.329614,-0.32666 z m -1.372143,-6.79472 c -8.59e-4,-2.93087 -0.01823,-4.21816 -0.05529,-4.15456 -0.174662,0.29997 -0.657794,3.81788 -0.934482,6.8044 -0.05847,0.63095 -0.106283,1.24836 -0.106283,1.37203 v 0.22485 h 0.548811 0.548802 l -0.0017,-4.24672 z m 2.24909,4.22046 c 0,-0.0145 -0.08324,-0.76121 -0.184989,-1.65949 -0.486984,-4.29963 -0.873387,-6.83383 -1.042004,-6.83383 -0.01505,0 -0.02743,1.9169 -0.02743,4.25979 v 4.25979 h 0.627207 c 0.344964,0 0.627208,-0.0118 0.627208,-0.0263 z"
       id="tower"
       inkscape:connector-curvature="0"
       inkscape:label="#path3735"
       inkscape:export-filename="C:\Users\pr0gr4mm3r\source\repos\RangersAppTest\dist\images\icon-512.png"
       inkscape:export-xdpi="96"
       inkscape:export-ydpi="96" />
  </g>
  <g
     inkscape:groupmode="layer"
     id="layer2"
     inkscape:label="Wheel"
     style="display:inline"
     transform="translate(0,-161.53332)">
    <path
       id="wheel"
       style="color:#000000;font-style:normal;font-variant:normal;font-weight:normal;font-stretch:normal;font-size:medium;line-height:normal;font-family:sans-serif;font-variant-ligatures:normal;font-variant-position:normal;font-variant-caps:normal;font-variant-numeric:normal;font-variant-alternates:normal;font-feature-settings:normal;text-indent:0;text-align:start;text-decoration:none;text-decoration-line:none;text-decoration-style:solid;text-decoration-color:#000000;letter-spacing:normal;word-spacing:normal;text-transform:none;writing-mode:lr-tb;direction:ltr;text-orientation:mixed;dominant-baseline:auto;baseline-shift:baseline;text-anchor:start;white-space:normal;shape-padding:0;clip-rule:nonzero;display:inline;overflow:visible;visibility:visible;opacity:1;isolation:auto;mix-blend-mode:normal;color-interpolation:sRGB;color-interpolation-filters:linearRGB;solid-color:#000000;solid-opacity:1;vector-effect:none;fill:#000000;fill-opacity:1;fill-rule:nonzero;stroke:none;stroke-width:0.11700729px;stroke-linecap:butt;stroke-linejoin:miter;stroke-miterlimit:4;stroke-dasharray:none;stroke-dashoffset:0;stroke-opacity:1;color-rendering:auto;image-rendering:auto;shape-rendering:auto;text-rendering:auto;enable-background:accumulate"
       d="m 69.503036,195.31282 c 0,0 3.593312,5.5959 3.910708,5.7107 0.153697,0.0444 0.438933,-0.27943 0.438933,-0.27943 0,0 6.907055,8.41363 7.26122,8.63573 -0.534717,0.6142 -3.361768,2.38604 -3.177484,2.08917 0.196985,-0.3173 -5.415146,-9.56594 -5.43801,-9.76373 -0.02279,-0.19778 0.434032,-0.226 0.527021,-0.43155 0.0663,-0.14653 -3.635207,-5.75362 -3.872056,-5.63218 -0.381372,0.19553 -0.403007,0.14508 -0.525447,0.19536 0.02433,0.27214 1.062512,6.56378 1.307771,6.79554 0.123249,0.10197 0.514028,-0.0814 0.514028,-0.0814 0,0 2.977137,10.4684 3.213307,10.81321 -0.735434,0.35017 -4.034945,0.84838 -3.747508,0.64959 0.307249,-0.21248 -1.149207,-10.93057 -1.09125,-11.12106 0.05796,-0.19049 0.488205,-0.0343 0.655498,-0.18573 0.11925,-0.10796 -1.036088,-6.75898 -1.30109,-6.7842 -0.218792,-0.0208 -0.387469,0.0449 -0.387469,0.0449 0,0 -1.426617,6.41224 -1.286721,6.71925 0.07576,0.14084 0.506822,0.1181 0.506822,0.1181 0,0 -1.186354,10.81824 -1.097492,11.22656 -0.813237,0.0476 -4.057604,-0.73258 -3.716406,-0.80856 0.364681,-0.0812 3.053874,-10.55847 3.179333,-10.71314 0.125467,-0.15466 0.465194,0.15197 0.677236,0.0746 0.151143,-0.0551 1.49706,-6.55903 1.24456,-6.64329 -0.406575,-0.13566 -0.41815,-0.2126 -0.539747,-0.26491 -0.177552,0.20777 -3.84325,5.31416 -3.837462,5.65146 0.01324,0.15934 0.417668,0.31028 0.417668,0.31028 0,0 -5.221988,9.52705 -5.303411,9.93692 -0.764782,-0.28043 -3.467897,-2.28901 -3.124687,-2.22271 0.36684,0.0709 6.870097,-8.54444 7.046866,-8.63627 0.176768,-0.0918 0.365971,0.32475 0.591281,0.33832 0.160611,0.01 4.001822,-5.3996 3.803874,-5.57749 -0.318703,-0.28644 -0.389034,-0.39996 -0.389034,-0.39996 0,0 -5.516879,3.61483 -5.631598,3.93209 -0.04437,0.15363 0.279801,0.43854 0.279801,0.43854 0,0 -8.389213,6.8809 -8.611272,7.23496 -0.614825,-0.53412 -2.415222,-3.33267 -2.118102,-3.14864 0.317585,0.19672 9.660258,-5.3639 9.858154,-5.38684 0.197897,-0.023 0.135193,0.38117 0.340906,0.47401 0.146638,0.0662 5.755329,-3.63574 5.633714,-3.87239 -0.195833,-0.38106 -0.200614,-0.46159 -0.250969,-0.58394 -0.272295,0.0245 -6.381247,1.07214 -6.613031,1.31737 -0.101975,0.12322 -0.01144,0.59316 -0.01144,0.59316 0,0 -10.380558,3.00511 -10.72547,3.2413 -0.350726,-0.73484 -0.889734,-4.08446 -0.690685,-3.79729 0.212746,0.30697 10.949137,-1.03619 11.139767,-0.97837 0.190639,0.0579 0.06131,0.31846 0.212867,0.48558 0.108072,0.11913 6.339043,-1.21949 6.656929,-1.25179 0.02072,-0.21868 -0.06724,-0.41376 -0.06724,-0.41376 -0.574177,0.0326 -6.394549,-1.39623 -6.701677,-1.25628 -0.140894,0.0758 -0.117935,0.50658 -0.117935,0.50658 0,0 -10.825218,-1.1806 -11.233728,-1.0916 -0.04807,-0.81274 0.731117,-4.05554 0.807304,-3.71458 0.08143,0.36443 10.566157,3.04714 10.720973,3.17245 0.154815,0.12532 -0.151841,0.46499 -0.07438,0.67687 0.05521,0.15103 6.688435,1.4267 6.772627,1.17431 0.135554,-0.40639 0.08773,-0.35158 0.14,-0.47314 -0.207974,-0.17735 -5.319096,-3.83849 -5.656587,-3.83255 -0.159433,0.0133 -0.428056,0.50843 -0.428056,0.50843 0,0 -9.391206,-5.34439 -9.80135,-5.42557 0.28024,-0.76446 2.171321,-3.46733 2.105152,-3.1243 -0.07077,0.36667 8.643639,6.99284 8.735613,7.16945 0.09197,0.17663 -0.324447,0.27462 -0.337921,0.49981 -0.0096,0.16051 5.489492,4.09153 5.667396,3.89363 0.159235,-0.1066 0.203606,-0.15951 0.291685,-0.29327 -0.182694,-0.23163 -3.616839,-5.53722 -3.934648,-5.65094 -0.153861,-0.0439 -0.437918,0.28119 -0.437918,0.28119 0,0 -6.937521,-8.39355 -7.292486,-8.61449 0.532481,-0.61651 3.353092,-2.39961 3.169882,-2.10192 -0.195823,0.31821 5.4498,9.55194 5.473387,9.74976 0.02356,0.19783 -0.433215,0.22772 -0.525456,0.43372 -0.06578,0.14685 3.65605,5.74382 3.892461,5.62145 0.380658,-0.19703 0.402474,-0.14663 0.524742,-0.19738 -0.02537,-0.27221 -1.086314,-6.56377 -1.332424,-6.79478 -0.123602,-0.10159 -0.513719,0.0832 -0.513719,0.0832 0,0 -3.015084,-10.46374 -3.252501,-10.8079 0.734161,-0.35304 4.031841,-0.86351 3.745118,-0.66356 -0.306467,0.21372 1.188848,10.93282 1.131587,11.12364 -0.05727,0.19081 -0.488085,0.0361 -0.654827,0.18821 -0.118855,0.10845 1.060594,6.75919 1.325683,6.78346 0.218869,0.02 0.387305,-0.0464 0.387305,-0.0464 0,0 1.403349,-6.42118 1.262343,-6.72786 -0.07627,-0.14064 -0.507252,-0.11633 -0.507252,-0.11633 0,0 1.147117,-10.82889 1.056777,-11.23712 0.813056,-0.0506 4.060226,0.7183 3.719312,0.79556 -0.364389,0.0825 -3.015566,10.57574 -3.140465,10.73095 -0.1249,0.1552 -0.465737,-0.15037 -0.677494,-0.0722 -0.150946,0.0557 -1.473267,6.5683 -1.220467,6.6517 0.407057,0.13427 0.418915,0.21121 0.540702,0.26311 0.176795,-0.20854 3.823953,-5.33121 3.816945,-5.66868 -0.01384,-0.15939 -0.418794,-0.30895 -0.418794,-0.30895 0,0 5.187411,-9.55157 5.267347,-9.96196 0.765796,0.27781 3.476168,2.27778 3.132726,2.21269 -0.367098,-0.0696 -6.839072,8.57434 -7.015505,8.66687 -0.176433,0.0925 -0.367149,-0.32361 -0.592511,-0.33639 -0.160637,-0.009 -3.982208,5.41728 -3.783632,5.59455 0.31976,0.28546 0.390495,0.3988 0.390495,0.3988 0,0 5.503741,-3.63695 5.617307,-3.95481 0.04377,-0.15388 -0.281392,-0.43779 -0.281392,-0.43779 0,0 8.364208,-6.91534 8.584986,-7.27041 0.616751,0.53221 2.427277,3.32588 2.129495,3.14281 -0.31829,-0.19568 -9.640738,5.40205 -9.838549,5.42573 -0.197818,0.0236 -0.136577,-0.38091 -0.342625,-0.47306 -0.146878,-0.0657 -5.742103,3.65873 -5.619628,3.89509 0.197208,0.38057 0.202273,0.46112 0.253084,0.58337 0.2722,-0.0255 6.377308,-1.0959 6.608207,-1.34211 0.101519,-0.12365 -0.0835,-0.72248 -0.0835,-0.72248 0,0 10.462343,-2.91556 10.806395,-3.15314 0.353374,0.73399 0.904524,4.08364 0.704443,3.79701 -0.213864,-0.30637 -10.945311,1.07648 -11.136147,1.01932 -0.190845,-0.0572 -0.06243,-0.31842 -0.21463,-0.48509 -0.108502,-0.11881 -6.33458,1.24317 -6.652337,1.27665 -0.01995,0.21887 0.02348,0.51185 0.02348,0.51185 0,0 6.444896,1.27577 6.751517,1.13463 0.14061,-0.0764 0.116095,-0.5073 0.116095,-0.5073 0,0 10.829423,1.14206 11.237615,1.05153 0.05099,0.81304 -0.716413,4.06057 -0.793829,3.71969 -0.08272,-0.36436 -10.577147,-3.01064 -10.73241,-3.13547 -0.155271,-0.12482 0.150155,-0.46581 0.07189,-0.67753 -0.05581,-0.15092 -6.693569,-1.4033 -6.776841,-1.15046 -0.134083,0.40712 -0.08644,0.35211 -0.13828,0.47392 0.208611,0.17671 5.332983,3.82148 5.670449,3.81431 0.159382,-0.0139 0.426207,-0.51028 0.426207,-0.51028 0,0 9.410519,5.31348 9.820955,5.39322 -0.277462,0.76593 -2.158732,3.47724 -2.093801,3.13376 0.06939,-0.36713 -8.668945,-6.9656 -8.761556,-7.14199 -0.09261,-0.17639 0.323441,-0.27596 0.336107,-0.50132 0.009,-0.16065 -5.419127,-3.97969 -5.596317,-3.78102 -0.285305,0.31988 -0.398028,0.36658 -0.398028,0.36658"
       inkscape:connector-curvature="0"
       sodipodi:nodetypes="ccccccccccccccccccccccccccccccccccccccccccccccccccccscccccccccccccccscccccccsccccccccccccccccccsccccscccccccccccccccsccccccccccsc"
       inkscape:label="#path6743"
       inkscape:export-filename="C:\Users\pr0gr4mm3r\source\repos\RangersAppTest\dist\images\icon-512.png"
       inkscape:export-xdpi="96"
       inkscape:export-ydpi="96" />
  </g>
</svg>
